<?xml version="1.0" encoding="UTF-8" standalone="no"?>
<svg viewBox="0 0 32 32" xmlns="http://www.w3.org/2000/svg" xmlns:xlink="http://www.w3.org/1999/xlink">
  <g id="email-mail" data-iconmelon="Streamline Icon Set:21c7614c681ed3bed89ecd183c1eebe4">
    <g id="Expanded">
      <g>
        <g>
          <path  d="M29.333,26.667H2.667C1.196,26.667,0,25.471,0,24V8c0-1.471,1.196-2.667,2.667-2.667h26.667
				C30.804,5.333,32,6.529,32,8v16C32,25.471,30.804,26.667,29.333,26.667z M2.667,6.666C1.931,6.666,1.333,7.265,1.333,8v16
				c0,0.735,0.598,1.333,1.333,1.333h26.667c0.736,0,1.334-0.598,1.334-1.333V8c0-0.735-0.598-1.334-1.334-1.334H2.667z"></path>
        </g>
        <g>
          <path  d="M16,19.461L4.305,11.893c-0.309-0.199-0.398-0.611-0.198-0.922c0.2-0.309,0.612-0.397,0.922-0.197
				L16,17.872l10.972-7.099c0.309-0.2,0.722-0.111,0.922,0.197c0.2,0.311,0.111,0.723-0.198,0.922L16,19.461z"></path>
        </g>
        <g>
          <path  d="M4,22.667c-0.215,0-0.427-0.104-0.555-0.297c-0.205-0.307-0.122-0.721,0.185-0.925l6-4
				c0.307-0.204,0.721-0.122,0.925,0.185c0.205,0.307,0.122,0.721-0.185,0.925l-6,4C4.256,22.63,4.127,22.667,4,22.667z"></path>
        </g>
        <g>
          <path  d="M27.999,22.667c-0.127,0-0.255-0.037-0.369-0.112l-6-4c-0.307-0.204-0.389-0.618-0.185-0.925
				s0.617-0.389,0.925-0.185l6,4c0.307,0.204,0.389,0.618,0.185,0.925C28.427,22.562,28.215,22.667,27.999,22.667z"></path>
        </g>
      </g>
    </g>
  </g>
</svg>
